<svg xmlns="http://www.w3.org/2000/svg" viewBox="0 0 64 64" fill="none">
  <g fill="currentColor" opacity="0.6">
    <!-- Center petal -->
    <path d="M32 4c-2 8-3 14-3 20 0 4 1.2 7 3 9 1.8-2 3-5 3-9 0-6-1-12-3-20z"/>
    <!-- Left petal -->
    <path d="M16 18c6 4 11 8 14 13 2 3 2.5 5.5 2 8-2.5-0.5-5-2-7-4.5-3-4-6-10-9-16.5z"/>
    <!-- Right petal -->
    <path d="M48 18c-6 4-11 8-14 13-2 3-2.5 5.5-2 8 2.5-0.5 5-2 7-4.5 3-4 6-10 9-16.5z"/>
    <!-- Left curl -->
    <path d="M20 32c-4 2-7 5-8 8 2 1 5 0.5 7-1 3-2 4.5-4.5 5-7h-4z"/>
    <!-- Right curl -->
    <path d="M44 32c4 2 7 5 8 8-2 1-5 0.5-7-1-3-2-4.5-4.5-5-7h4z"/>
    <!-- Base band -->
    <rect x="26" y="42" width="12" height="3" rx="1"/>
    <!-- Base stem -->
    <path d="M30 45h4v10c0 2-1 3-2 3s-2-1-2-3V45z"/>
    <!-- Base flare left -->
    <path d="M28 52c-3 2-6 3-8 3 0-2 1.5-4 4-5l4-1v3z"/>
    <!-- Base flare right -->
    <path d="M36 52c3 2 6 3 8 3 0-2-1.5-4-4-5l-4-1v3z"/>
  </g>
</svg>
