<?xml version="1.0" encoding="UTF-8"?>
<svg xmlns="http://www.w3.org/2000/svg" width="187" height="76" viewBox="0 0 187 76" fill="none">
  <path d="M137.838 33.5323C137.743 31.2308 136.572 29.1211 134.484 27.5868C132.207 25.8607 128.98 24.9657 125.152 24.9657H118.571C118.35 24.9657 118.16 25.1574 118.16 25.3812V50.8574C118.16 51.0812 118.35 51.273 118.571 51.273H120.28C120.501 51.273 120.691 51.0812 120.691 50.8574V42.7702C121.166 42.7063 121.925 42.7063 122.431 42.7063H123.38C125.563 42.7702 127.43 43.9849 129.581 45.775C130.087 46.1905 130.562 46.6061 131.099 47.0855C132.713 48.492 134.421 49.9624 136.414 51.1771C136.541 51.241 136.699 51.241 136.825 51.1771C136.952 51.1131 137.015 50.9853 137.015 50.8255V48.6838C137.015 48.524 136.92 48.3961 136.794 48.3002C134.927 47.4371 133.314 46.1905 131.732 44.9439L131.352 44.6242C130.245 43.7931 128.948 43.026 127.936 42.5145C130.973 42.099 133.504 41.0122 135.275 39.3819C136.984 37.7837 137.901 35.7059 137.838 33.5323ZM125.5 41.4916H122.431C121.925 41.4916 121.197 41.5236 120.691 41.5556V26.1484H125.5C132.175 26.1484 135.244 30.112 135.244 33.82C135.212 37.528 132.175 41.4916 125.5 41.4916Z" fill="white"></path>
  <path d="M178.711 47.7248C178.648 47.6289 178.553 47.597 178.458 47.565C178.363 47.565 178.237 47.565 178.174 47.6609C176.402 49.0674 174.535 49.7386 172.511 49.7386C171.245 49.7386 169.822 49.3551 168.082 48.492C166.88 47.9166 165.614 47.1814 164.285 46.3823L164.254 46.3503C163.874 46.1266 163.463 45.9028 163.052 45.6471C160.805 44.3685 157.895 42.9301 154.953 42.1309C159.793 40.9163 162.893 37.7197 162.893 33.82C162.893 29.5367 158.939 24.9657 150.239 24.9657H143.659C143.437 24.9657 143.248 25.1574 143.248 25.3812V50.8574C143.248 51.0812 143.437 51.273 143.659 51.273H145.367C145.589 51.273 145.778 51.0812 145.778 50.8574V42.7702C146.285 42.7063 147.012 42.7063 147.518 42.7063H150.587C151.758 42.7063 153.118 43.1219 154.826 44.0488C156.155 44.7521 157.515 45.6151 158.971 46.5741L159.73 47.0536C163.4 49.387 166.974 51.4967 170.707 51.4967C173.745 51.4967 176.434 50.5697 178.933 48.6199C179.091 48.492 179.154 48.2363 178.996 48.0445L178.711 47.7248ZM150.492 41.4916H147.423C146.886 41.4916 146.19 41.4916 145.683 41.5236V26.1484H150.492C157.167 26.1484 160.236 30.112 160.236 33.82C160.204 37.528 157.167 41.4916 150.492 41.4916Z" fill="white"></path>
  <path d="M18.9183 24.646C15.4383 24.646 12.4962 25.7648 10.4715 27.9384C8.66825 29.8244 7.62426 32.4135 7.62426 35.1625C7.62426 37.9115 8.63661 40.5007 10.4715 42.3867C12.4962 44.5603 15.4383 45.6791 18.9183 45.6791C21.8604 45.6791 24.4229 44.8799 26.4476 43.2497C26.5109 43.1858 26.5426 43.0899 26.5426 42.994V40.6605C26.5426 40.5007 26.4476 40.4048 26.3211 40.3409C26.1629 40.277 26.068 40.3409 25.9415 40.5007C24.9924 42.099 22.7462 44.7521 18.855 44.7521C15.5965 44.7521 12.9707 43.2497 11.4206 40.4368C10.0919 38.0074 9.80714 34.8748 10.5664 32.0619H28.0294C28.1243 32.0619 28.2509 31.998 28.2825 31.966C28.3458 31.8701 28.3458 31.7423 28.3458 31.7103C27.0487 27.2991 23.4422 24.646 18.9183 24.646ZM25.2138 31.071H11.4838C11.2624 31.071 11.1042 30.8153 11.1991 30.6235C12.6544 27.4589 15.3751 25.7008 18.9183 25.7008C20.3735 25.7008 23.8851 26.2123 25.4986 30.6554C25.5618 30.8472 25.4353 31.071 25.2138 31.071Z" fill="white"></path>
  <path d="M177.604 24.646C174.124 24.646 171.182 25.7648 169.157 27.9384C167.354 29.8244 166.31 32.4135 166.31 35.1625C166.31 37.9115 167.322 40.5007 169.157 42.3867C171.182 44.5603 174.124 45.6791 177.604 45.6791C180.546 45.6791 183.109 44.8799 185.134 43.2497C185.197 43.1858 185.228 43.0899 185.228 42.994V40.6605C185.228 40.5007 185.133 40.4048 185.007 40.3409C184.849 40.277 184.754 40.3409 184.627 40.5007C183.678 42.067 181.432 44.7201 177.509 44.7201C174.251 44.7201 171.625 43.2178 170.075 40.4048C168.746 37.9755 168.461 34.8429 169.221 32.0299H186.684C186.779 32.0299 186.905 31.966 186.937 31.9341C187 31.8382 187 31.7103 187 31.6783C185.735 27.2991 182.16 24.646 177.604 24.646ZM183.9 31.071H170.201C169.98 31.071 169.822 30.8153 169.917 30.6235C171.372 27.4589 174.093 25.7008 177.636 25.7008C179.091 25.7008 182.603 26.2123 184.216 30.6554C184.279 30.8472 184.121 31.071 183.9 31.071Z" fill="white"></path>
  <path d="M19.7092 48.6838C17.3681 49.387 13.2555 50.2501 2.62578 50.2501V25.3173C2.62578 25.1574 2.4676 24.9976 2.30942 24.9976H0.316359C0.15818 24.9976 0 25.1574 0 25.3173V51.0172C0 51.1771 0.15818 51.3369 0.316359 51.3369H19.8041C19.9623 51.3369 20.1205 51.1771 20.1205 51.0172V49.0354C20.1205 48.9395 20.0572 48.8117 20.0255 48.7797C19.9306 48.6838 19.8357 48.6838 19.7092 48.6838Z" fill="white"></path>
  <path d="M112.814 24.9976H110.852C110.757 24.9976 110.631 25.0615 110.599 25.0935C110.536 25.1574 110.504 25.2533 110.536 25.3492C111.327 28.6416 112.086 32.7971 112.086 41.0122V43.9849C112.086 45.8069 111.232 47.4372 109.587 48.5879C108.132 49.6108 106.075 50.2181 103.987 50.2501C101.836 50.314 99.8747 49.7706 98.3878 48.7477C96.7743 47.6289 95.8885 45.9987 95.8885 43.9849V25.3173C95.8885 25.1574 95.7303 24.9976 95.5722 24.9976H93.6424C93.4842 24.9976 93.326 25.1574 93.326 25.3173V43.9849C93.326 46.3184 94.4016 48.3002 96.4896 49.6427C98.2612 50.8255 100.666 51.5287 103.26 51.5287C105.822 51.5287 108.227 50.8894 110.03 49.6427C112.054 48.3002 113.13 46.2864 113.13 43.9849V25.3173C113.13 25.1574 112.972 24.9976 112.814 24.9976Z" fill="white"></path>
  <path d="M78.0775 24.7099C73.9015 24.7099 70.39 26.1803 67.8591 28.8654C65.6762 31.2948 64.4424 34.5232 64.4424 38.0394C64.4424 41.5556 65.6762 44.784 67.8591 47.2134C70.3267 49.8985 73.8383 51.3689 78.0775 51.3689C81.6523 51.3689 84.6894 50.346 87.157 48.3002C87.2519 48.2043 87.3152 48.1404 87.3152 48.0765V45.9348C87.3152 45.8389 87.2203 45.711 87.0937 45.6791C86.9672 45.6471 86.8406 45.6791 86.7774 45.775C85.0058 48.8117 82.032 50.3779 78.1091 50.3779C74.0914 50.3779 70.8961 48.3961 69.0296 44.7521C67.4162 41.5556 67.0682 37.528 68.0173 33.9159H89.2133C89.3082 33.9159 89.3715 33.852 89.4348 33.82C89.4981 33.7561 89.4981 33.6602 89.4981 33.5643C87.853 28.0023 83.5821 24.7099 78.0775 24.7099ZM86.0814 32.925H68.8082C68.5867 32.925 68.4285 32.7012 68.5234 32.4775C70.2318 28.2261 73.6801 25.7328 78.1408 25.7328C81.9687 25.7328 85.0058 28.2581 86.3977 32.5094C86.461 32.7012 86.3028 32.925 86.0814 32.925Z" fill="white"></path>
  <path d="M57.609 38.3591C56.5018 37.5599 54.9516 36.9845 53.6545 36.6329C53.4647 36.569 53.2433 36.5051 53.0535 36.4731C52.8004 36.4092 52.5473 36.3452 52.2626 36.3133C52.0727 36.2813 51.8513 36.2494 51.6615 36.2174L51.1553 36.1854L50.7124 36.1535L49.9848 36.1215H48.7826L43.531 36.2174H41.8227C41.6962 36.2174 41.5696 36.2174 41.4431 36.1854C41.2216 36.1535 40.9685 36.1215 40.7154 36.0895C40.5889 36.0576 40.4624 36.0576 40.3358 36.0256C38.406 35.642 36.8875 34.5872 35.5272 33.0209C34.1668 31.4865 33.3443 29.4088 33.2494 27.2991C33.1228 25.1894 33.8188 22.9838 35.1159 21.1938C35.7802 20.3307 36.5711 19.5316 37.4886 18.9242C38.406 18.3169 39.4817 17.9014 40.5256 17.6137C41.538 17.326 43.1198 17.3899 44.1954 17.6776L44.6067 17.8055C45.1128 17.9653 45.6823 18.189 46.1885 18.4128L46.2201 18.4448C48.3713 19.3398 47.9601 19.3398 50.0797 20.4266C51.7248 21.2897 54.8251 22.5043 56.0272 22.9518C56.312 23.0797 56.6283 22.9199 56.7865 22.6322L57.261 21.2257C57.4192 20.8102 57.1029 20.4266 56.6916 20.4266C54.0025 20.5864 52.2942 19.9152 50.3011 19.0521C48.1499 18.1251 48.7826 18.3169 46.5997 17.4858L45.7772 17.1662L44.923 16.8785L44.5118 16.8465L44.0372 16.7186C42.9616 16.4629 41.538 16.431 40.3358 16.6867C39.2286 16.9424 38.058 17.4219 36.9824 18.0292C35.9068 18.6366 34.9261 19.4357 34.1035 20.3946C33.281 21.3536 32.6166 22.4404 32.1105 23.6231C31.6359 24.8058 31.3196 26.0525 31.2563 27.363C31.0981 29.9522 31.8574 32.6693 33.3759 34.8429C34.1668 35.9617 35.1159 36.9206 36.1915 37.6878C37.2988 38.4869 38.2478 39.0623 39.5449 39.4139C39.7347 39.4778 39.9562 39.5418 40.146 39.5737C40.3991 39.6377 40.6522 39.7016 40.9369 39.7336C41.1267 39.7655 41.3482 39.7975 41.538 39.8294L42.0442 39.8614L42.4871 39.8934L43.2147 39.9253H44.4169L49.6684 39.8294H51.3768C51.5033 39.8294 51.6298 39.8294 51.7564 39.8614C51.9778 39.8934 52.2309 39.9253 52.484 39.9573C52.6106 39.9893 52.7371 39.9893 52.8637 40.0212C54.7934 40.4048 56.312 41.4597 57.6723 43.026C59.0327 44.5603 59.8552 46.638 59.9501 48.7477C60.0766 50.8574 59.3807 53.063 58.0836 54.8531C57.4192 55.7161 56.6283 56.5153 55.7109 57.1226C54.7934 57.7299 53.7495 58.1774 52.6738 58.4332C51.5982 58.6889 50.744 58.7208 49.6684 58.593L49.2572 58.5291C49.099 58.4971 49.0041 58.4651 48.8459 58.4332L48.4346 58.3373L48.055 58.2094C47.5488 58.0496 46.9794 57.8258 46.4732 57.6021L46.4416 57.5701C44.2903 56.6751 39.8613 54.885 37.7417 53.7982C36.0966 52.9352 32.9963 51.7205 31.7941 51.273C31.5094 51.1451 31.193 51.3049 31.0349 51.5926L30.5603 52.9991C30.4021 53.4146 30.7185 53.7982 31.1298 53.7982C33.8188 53.6384 35.5272 54.3097 37.5202 55.1727C39.6715 56.0997 43.879 57.666 46.0619 58.5291L46.8845 58.8487L47.7386 59.1364L47.9601 59.2323L48.1815 59.2962L48.6561 59.4241C48.8142 59.456 48.9408 59.488 49.1306 59.52L49.6051 59.5839C50.8073 59.7437 52.3258 59.7118 53.5596 59.456C54.7618 59.2003 55.9323 58.7528 56.9763 58.1455C58.0519 57.5381 59.0327 56.739 59.8552 55.7801C60.6461 54.8211 61.3421 53.7343 61.8483 52.5516C62.3228 51.3689 62.6392 50.1222 62.7024 48.8117C62.7341 46.1585 61.9432 43.5054 60.4246 41.2998C59.6337 40.1171 58.6847 39.1582 57.609 38.3591Z" fill="white"></path>
  <path d="M102.077 5.48067H98.7607V4.25743H100.656V3.45967H98.7607V2.44917H101.866V1.65141H97.8659V6.27843H102.077V5.48067Z" fill="white"></path>
  <path d="M108.918 5.90614C109.181 5.64022 109.339 5.32112 109.339 4.89564C109.339 4.31062 108.97 3.83196 108.444 3.72559C108.812 3.61922 109.075 3.24694 109.075 2.82146C109.075 2.55554 108.97 2.34281 108.812 2.13007C108.496 1.81096 108.075 1.65141 107.496 1.65141H104.549V6.33161H107.602C108.233 6.27843 108.602 6.22525 108.918 5.90614ZM105.444 2.44917H107.391C107.707 2.44917 107.865 2.50236 108.023 2.66191C108.128 2.76828 108.128 2.82146 108.128 2.98101C108.128 3.14057 108.075 3.30012 107.97 3.40649C107.865 3.51286 107.707 3.56604 107.444 3.56604H105.444V2.44917ZM105.444 5.48067V4.25743H107.549C107.865 4.25743 108.075 4.3638 108.233 4.52335C108.339 4.62972 108.391 4.73609 108.391 4.89564C108.391 5.00201 108.339 5.16156 108.233 5.26793C108.128 5.3743 107.865 5.48067 107.549 5.48067H105.444Z" fill="white"></path>
  <path d="M101.127 0H100.022L99.1798 1.06368H100.022L101.127 0Z" fill="white"></path>
  <path d="M133.08 1.65141H132.185V6.33161H133.08V1.65141Z" fill="white"></path>
  <path d="M127.028 6.27843H127.923V2.44917H129.871V1.65141H125.081V2.44917H127.028V6.27843Z" fill="white"></path>
  <path d="M121.131 5.68971C120.026 5.68971 119.341 5.15787 118.92 4.83877L118.394 5.47698C118.973 5.95563 119.815 6.48747 121.131 6.48747C122.289 6.48747 123.289 6.062 123.289 4.89195C123.289 3.56235 121.868 3.45598 121.026 3.4028C120.289 3.34961 119.605 3.34961 119.605 2.87095C119.605 2.44548 120.078 2.28593 120.657 2.28593C121.552 2.28593 122.184 2.60503 122.5 2.81777L123.026 2.17956C122.605 1.86046 121.763 1.48817 120.71 1.48817C119.815 1.48817 118.71 1.80727 118.71 2.97732C118.71 4.14737 119.973 4.20056 121.078 4.30692C121.921 4.36011 122.447 4.51966 122.447 5.0515C122.394 5.47697 121.815 5.68971 121.131 5.68971Z" fill="white"></path>
  <path d="M112.762 5.10838H115.078L115.657 6.27843H116.657L114.394 1.65141H113.604L111.341 6.33161H112.288L112.762 5.10838ZM113.92 2.71509L114.762 4.3638H113.13L113.92 2.71509Z" fill="white"></path>
  <path d="M51.1775 5.48067H47.9141V4.25743H49.809V3.45967H47.9141V2.44917H51.0196V1.65141H47.0193V6.27843H51.1775V5.48067Z" fill="white"></path>
  <path d="M50.2281 0H49.1228L48.3332 1.06368H49.1228L50.2281 0Z" fill="white"></path>
  <path d="M42.1786 6.48526C43.284 6.48526 44.1262 6.0066 44.6525 5.47476L44.0209 4.88973C43.5998 5.31521 42.9682 5.68749 42.1786 5.68749C41.1259 5.68749 40.4416 4.94292 40.4416 4.03879C40.4416 3.13466 41.1259 2.3369 42.1786 2.3369C42.7576 2.3369 43.4419 2.60282 43.863 2.97511L44.4946 2.39008C43.9683 1.91142 43.0734 1.53913 42.1786 1.53913C40.5995 1.53913 39.5468 2.656 39.5468 4.03879C39.4942 5.31521 40.5469 6.48526 42.1786 6.48526Z" fill="white"></path>
  <path d="M68.2317 6.27843V1.65141H67.3369V4.84246L64.5471 1.65141H63.7576V6.27843H64.6524V3.14057L67.4421 6.27843H68.2317Z" fill="white"></path>
  <path d="M136.975 4.25743H138.87V3.45967H136.975V2.44917H140.08V1.65141H136.08V6.27843H140.238V5.48067H136.975V4.25743Z" fill="white"></path>
  <path d="M147.237 6.27843V1.65141H146.289V4.84246L143.552 1.65141H142.763V6.27843H143.657V3.14057L146.395 6.27843H147.237Z" fill="white"></path>
  <path d="M60.808 1.65141H59.9132V6.33161H60.808V1.65141Z" fill="white"></path>
  <path d="M75.3883 5.48067H72.0722V4.25743H73.9671V3.45967H72.0722V2.44917H75.1777V1.65141H71.1773V6.27843H75.3883V5.48067Z" fill="white"></path>
  <path d="M82.1276 6.43503C82.6014 6.43503 83.233 6.27547 83.9173 5.79682L84.4436 6.32866H85.6017L84.4963 5.31816C84.8647 4.99906 85.1806 4.57358 85.549 4.04174L84.8121 3.66945C84.4963 4.14811 84.2331 4.5204 83.9173 4.78632L83.0225 3.93537C82.8646 3.77582 82.1276 3.1908 82.1276 2.76532C82.1276 2.55259 82.3382 2.33985 82.7066 2.33985C83.1277 2.33985 83.4962 2.55259 83.7067 2.71214L84.1278 2.02075C83.812 1.80801 83.2856 1.59527 82.7066 1.59527C81.9171 1.59527 81.2328 2.12711 81.2328 2.87169C81.2328 3.13761 81.3381 3.35035 81.496 3.61627C80.8644 3.82901 80.2854 4.25448 80.2854 5.05224C80.338 5.95637 81.2855 6.43503 82.1276 6.43503ZM82.075 4.04174L82.3908 4.36085L83.3383 5.26498C82.9172 5.5309 82.4961 5.63727 82.1803 5.63727C81.7592 5.63727 81.2328 5.42453 81.2328 4.94587C81.2328 4.36085 81.7592 4.20129 82.075 4.04174Z" fill="white"></path>
  <path d="M93.2339 5.68971C92.1285 5.68971 91.4443 5.15787 91.0232 4.83877L90.4968 5.47698C91.0758 5.95563 91.918 6.48747 93.2339 6.48747C94.3919 6.48747 95.392 6.062 95.392 4.89195C95.392 3.56235 94.0234 3.45598 93.1286 3.4028C92.3917 3.34961 91.7074 3.34961 91.7074 2.87095C91.7074 2.44548 92.1812 2.28593 92.7602 2.28593C93.655 2.28593 94.2866 2.60503 94.6024 2.81777L95.1288 2.17956C94.7077 1.86046 93.8655 1.48817 92.8128 1.48817C91.918 1.48817 90.8126 1.80727 90.8126 2.97732C90.8126 4.14737 92.0759 4.20056 93.1813 4.30692C94.0234 4.36011 94.5498 4.51966 94.5498 5.0515C94.4445 5.47697 93.9182 5.68971 93.2339 5.68971Z" fill="white"></path>
  <path d="M57.6011 5.48067H54.6008V1.65141H53.706V6.27843H57.6011V5.48067Z" fill="white"></path>
  <path d="M89.9134 69.4584C89.4397 68.0224 88.3343 67.2246 87.1237 67.1183C86.1762 67.0119 85.1761 67.2778 84.4392 67.916L84.3866 67.4374C84.3866 67.2778 84.2287 67.1714 84.1234 67.1714H83.6497C83.4918 67.1714 83.3865 67.2778 83.3865 67.4374V75.6277C83.3865 75.7873 83.4918 75.9468 83.6497 75.9468H84.3866C84.5445 75.9468 84.7024 75.8405 84.7024 75.6277V69.9902C84.7024 68.6606 85.492 67.9692 86.3341 67.8097C87.1763 67.6501 88.1238 68.0756 88.4922 69.1924L88.7554 69.0861L88.4922 69.2456L90.545 75.7873C90.5977 75.8936 90.703 76 90.8082 76H91.5451C91.6504 76 91.703 75.9468 91.7557 75.8936C91.8083 75.8405 91.8083 75.7341 91.8083 75.6277L89.9134 69.4584Z" fill="white"></path>
  <path d="M110.126 70.6834C110.073 68.9815 108.599 67.386 105.915 67.386H103.757C103.599 67.386 103.494 67.4924 103.494 67.7051V75.6295C103.494 75.7891 103.599 75.9486 103.757 75.9486H104.388C104.546 75.9486 104.704 75.8423 104.704 75.6295V74.1404C104.809 74.1404 104.915 74.1404 105.02 74.1404H105.336C106.02 74.1404 106.652 74.3531 107.283 74.6722C107.915 74.9913 108.599 75.4168 109.441 75.9486C109.547 76.0018 109.652 76.0018 109.757 75.9486C109.863 75.8955 109.915 75.7891 109.915 75.6827V74.9913C109.915 74.885 109.863 74.7786 109.757 74.7254C108.968 74.3531 108.336 74.0872 107.704 73.8745C109.284 73.3958 110.178 72.0662 110.126 70.6834ZM108.178 72.5981C107.704 73.0767 106.968 73.449 105.967 73.449H105.073C104.967 73.449 104.862 73.449 104.757 73.449V68.0242H106.073C107.073 68.0242 107.81 68.3965 108.283 68.8752C108.757 69.3538 109.02 70.0452 109.02 70.7366C108.862 71.428 108.652 72.1194 108.178 72.5981Z" fill="white"></path>
  <path d="M118.81 67.3321H118.073C117.968 67.3321 117.863 67.3853 117.81 67.4916C117.126 68.6085 116.494 69.5126 115.757 70.3636L115.178 71.0018L111.967 67.3853C111.915 67.3321 111.81 67.2789 111.757 67.2789H110.915C110.809 67.2789 110.704 67.3321 110.652 67.4385C110.599 67.5448 110.599 67.6512 110.704 67.7576L114.336 71.7996V75.5756C114.336 75.7352 114.441 75.8947 114.652 75.8947H115.284C115.441 75.8947 115.599 75.7884 115.599 75.5756V71.64L119.073 67.7576C119.126 67.6512 119.179 67.5448 119.126 67.4385C119.021 67.3853 118.915 67.3321 118.81 67.3321Z" fill="white"></path>
  <path d="M80.5968 68.7213H80.0178C79.8599 68.7213 79.702 68.8276 79.702 69.0404V75.6352C79.702 75.7948 79.8072 75.9543 80.0178 75.9543H80.5968C80.7547 75.9543 80.9126 75.8479 80.9126 75.6352V68.9872C80.9126 68.8808 80.7547 68.7213 80.5968 68.7213Z" fill="white"></path>
  <path d="M80.3336 67.014C80.0178 67.014 79.702 67.2799 79.702 67.6522C79.702 67.9713 79.9652 68.2904 80.3336 68.2904C80.7021 68.2904 80.9652 67.9713 80.9652 67.6522C80.9652 67.2799 80.7021 67.014 80.3336 67.014Z" fill="white"></path>
  <path d="M78.0176 67.335H77.3334C77.1754 67.335 77.0702 67.4414 77.0702 67.601C76.9649 68.6115 76.6491 70.6856 76.228 72.0684L75.5437 74.3022L73.4909 67.5478C73.4383 67.4414 73.333 67.335 73.2277 67.335H72.5961C72.4908 67.335 72.4382 67.3882 72.3855 67.4414C72.3329 67.4946 72.3329 67.601 72.3329 67.7073L72.6487 68.6646L70.9117 74.3022L68.8589 67.5478C68.8063 67.4414 68.701 67.335 68.5957 67.335H67.9641C67.8588 67.335 67.8062 67.3882 67.7535 67.4414C67.7009 67.4946 67.7009 67.601 67.7009 67.7073L70.1222 75.7381C70.1748 75.8445 70.2801 75.9509 70.3854 75.9509H70.9644C71.0696 75.9509 71.2275 75.8445 71.2275 75.7381L73.0172 69.8879L74.8068 75.7381C74.8594 75.8445 74.9647 75.9509 75.07 75.9509H75.5964C75.7016 75.9509 75.8595 75.8445 75.8595 75.7381L78.2808 67.7073C78.3335 67.601 78.2808 67.5478 78.2282 67.4414C78.1755 67.3882 78.1229 67.335 78.0176 67.335Z" fill="white"></path>
  <path d="M97.5964 67.0649C96.0173 67.0649 94.8066 67.5968 94.0171 68.4477C93.2275 69.2987 92.8064 70.4155 92.8064 71.5324C92.8064 72.6493 93.2275 73.7661 94.0171 74.6171C94.8066 75.468 96.0173 75.9999 97.5964 75.9999C98.9649 75.9999 100.018 75.5744 100.807 74.9894C100.86 74.9362 100.912 74.8298 100.912 74.7766V73.8193C100.912 73.713 100.807 73.5534 100.702 73.5534C100.597 73.5002 100.439 73.5534 100.386 73.6598C99.8071 74.5639 98.9123 75.3085 97.5964 75.3085C96.1752 75.3085 95.2277 74.6171 94.7014 73.6066C94.175 72.6493 94.0697 71.4792 94.3329 70.4155H101.386C101.491 70.4155 101.544 70.3624 101.597 70.3092C101.649 70.256 101.649 70.1496 101.649 70.0432C101.176 68.5009 99.8597 67.0649 97.5964 67.0649ZM100.123 69.671H94.5961C95.1224 68.6073 96.1225 67.7563 97.5964 67.7563C98.9123 67.8095 99.7544 68.6073 100.123 69.671Z" fill="white"></path>
</svg>
